PathFileType	4	(X/Y/Z)	 s11c0303.trc
DataRate	CameraRate	NumFrames	NumMarkers	Units	OrigDataRate	OrigDataStartFrame	OrigNumFrames
200	200	4	48	mm	200	1251	2000
Frame#	Time	racr			lacr			c7			jug			rlel			rdr			llel			ldr			s2			lic			ric			lasi			rasi			rpsi			lpsi			rgt			lgt			rth1			rth2			rth3			rth4			rlfc			rmfc			rsh1			rsh2			rsh3			rsh4			rlmal			rcal			rtoe			rmt5			lth1			lth2			lth4			lth3			llfc			lmfc			llmal			lcal			lmt5			lsh1			lsh2			lsh3			lsh4			ltoe			SBIKE			LBIKE			RBIKE			
		X1	Y1	Z1	X2	Y2	Z2	X3	Y3	Z3	X4	Y4	Z4	X5	Y5	Z5	X6	Y6	Z6	X7	Y7	Z7	X8	Y8	Z8	X9	Y9	Z9	X10	Y10	Z10	X11	Y11	Z11	X12	Y12	Z12	X13	Y13	Z13	X14	Y14	Z14	X15	Y15	Z15	X16	Y16	Z16	X17	Y17	Z17	X18	Y18	Z18	X19	Y19	Z19	X20	Y20	Z20	X21	Y21	Z21	X22	Y22	Z22	X23	Y23	Z23	X24	Y24	Z24	X25	Y25	Z25	X26	Y26	Z26	X27	Y27	Z27	X28	Y28	Z28	X29	Y29	Z29	X30	Y30	Z30	X31	Y31	Z31	X32	Y32	Z32	X33	Y33	Z33	X34	Y34	Z34	X35	Y35	Z35	X36	Y36	Z36	X37	Y37	Z37	X38	Y38	Z38	X39	Y39	Z39	X40	Y40	Z40	X41	Y41	Z41	X42	Y42	Z42	X43	Y43	Z43	X44	Y44	Z44	X45	Y45	Z45	X46	Y46	Z46	X47	Y47	Z47	X48	Y48	Z48	
1251	6.2550	864.602532	1355.035723	-42.816339	854.614379	1326.137845	-393.047727	847.015049	1458.387926	-216.509022	832.186316	1280.995201	-212.905811	702.031725	1145.794157	92.224414	806.193185	929.852952	-32.768552	628.002784	1138.076384	-537.133085	814.139579	923.038056	-434.939496	241.344643	1274.969435	-232.320759	466.410800	1236.657098	-422.413027	462.700478	1279.126771	-28.758315	482.906054	1167.823586	-378.978075	481.430976	1204.242642	-55.517711	295.149124	1352.256568	-185.259324	300.002347	1336.787753	-277.533001	398.330741	1147.102750	0.959230	337.307293	1123.653538	-419.626923	504.909299	1053.981827	3.745582	582.491785	1009.889779	-12.012656	626.377635	934.380149	-21.233613	604.114943	1035.101897	-29.519961	690.253214	847.834435	-40.009581	684.820099	831.711718	-172.649160	559.987857	752.778959	-35.305074	497.088608	696.300186	-59.424584	412.862681	673.917158	-63.177481	513.107955	677.907307	-89.902542	288.470770	622.784333	-79.193626	245.443620	671.101433	-127.374238	348.391378	402.743147	-139.018858	292.177240	449.441008	-68.815156	370.301591	990.578332	-429.765456	402.467607	912.543214	-419.442196	438.663866	916.712834	-412.189399	390.915397	823.561692	-412.985895	402.368014	681.451336	-389.656081	397.676828	668.593826	-262.474989	223.993010	290.169955	-402.791292	160.871755	291.509660	-373.772641	303.994791	138.093458	-441.552016	344.499821	569.145255	-418.090475	335.316560	484.892802	-409.480431	285.421559	412.054325	-412.341819	364.367028	475.924888	-386.406878	394.724270	103.514826	-371.454325	-204.516127	950.407420	-262.486933	1.366575	82.281378	-460.724049	-15.208737	81.158291	-62.237314	
1252	6.2600	862.534662	1356.452644	-38.737574	856.588170	1330.066749	-389.769359	846.681848	1460.260180	-212.625560	832.408678	1283.007611	-210.203916	699.588414	1145.165021	92.897312	805.927906	930.083284	-32.640844	631.830733	1141.258515	-535.457335	814.976291	923.230663	-433.696246	241.427613	1274.370090	-235.345478	468.996554	1237.863643	-421.992276	459.650415	1278.969128	-27.851380	485.054623	1169.289278	-378.347191	479.390666	1204.826506	-55.670870	293.718481	1351.976584	-187.470277	300.661487	1336.491265	-279.553955	398.105250	1149.483211	0.841386	338.988568	1123.340126	-420.349129	505.471027	1056.705265	3.869628	583.633990	1014.001569	-11.056734	628.862998	939.180651	-20.458664	605.322727	1039.900314	-27.728562	695.206324	854.470497	-38.777555	693.249395	838.002924	-169.308442	567.619134	757.897699	-34.537420	505.389224	700.473347	-58.787221	421.451453	677.180753	-62.817692	521.795081	682.625105	-89.273708	296.844462	624.062545	-79.118331	252.871489	671.568794	-127.467450	360.338700	405.026932	-138.541767	303.299772	450.825272	-68.573307	370.323975	991.340591	-430.160042	400.910305	912.749018	-419.543365	437.008888	916.274484	-411.505772	387.374399	823.849203	-413.299648	395.202416	681.482087	-389.451919	389.329973	669.397746	-261.526283	215.260634	290.743286	-402.665989	152.486281	292.862133	-373.581076	293.421903	137.600736	-441.806478	335.886047	569.555752	-418.313751	326.407703	485.177687	-409.700533	276.166954	412.571986	-412.429553	355.471410	476.107714	-386.700490	383.776036	101.728702	-371.913332	-204.598596	950.431996	-262.418318	1.343846	82.319084	-460.704136	-15.341720	81.387397	-62.170017	
1253	6.2650	860.443489	1357.929319	-34.410548	858.627064	1333.822521	-386.405861	846.144145	1462.296478	-208.704012	832.679976	1284.939817	-207.604993	697.052713	1144.638522	93.444140	805.656624	930.454158	-32.475719	635.542791	1144.365259	-533.526903	815.815208	923.263191	-432.392085	241.376691	1274.015160	-238.350548	471.496404	1238.971970	-421.504883	456.599294	1278.966886	-26.804964	486.885986	1171.012238	-377.519375	476.979759	1205.481023	-55.954190	292.403366	1352.117447	-189.982152	300.843956	1336.832706	-282.135055	397.800193	1152.236224	0.546123	340.618514	1123.616833	-421.101127	506.003258	1059.571606	3.724261	584.632086	1018.140247	-10.157002	631.104434	944.153919	-19.666483	606.281618	1044.391271	-26.300494	699.829427	861.031661	-37.606565	699.391374	844.464992	-169.409458	574.893170	763.002269	-33.925695	513.733848	705.108311	-58.266966	429.956603	680.168711	-62.461080	530.733807	686.624661	-88.934532	305.034989	624.547978	-79.056479	260.241881	671.414784	-127.550144	372.212597	406.662330	-137.972174	314.371266	451.599995	-68.162041	370.321503	992.496606	-430.816592	399.378210	913.316993	-419.825102	435.377220	916.250897	-411.184585	384.129732	824.681026	-413.552873	388.402500	682.036228	-389.784132	382.203750	670.409132	-261.317270	206.664234	291.866621	-402.879893	144.351467	294.987779	-373.564547	282.817679	137.822458	-442.103933	327.652164	570.409336	-418.893494	317.935723	486.016682	-410.296450	267.338939	413.850028	-413.217084	347.117711	476.778404	-387.440091	372.713139	100.643153	-372.500765	-204.662346	950.445373	-262.337661	1.341486	82.399838	-460.767539	-15.245384	81.242933	-62.217745	
1254	6.2700	858.398479	1359.258988	-29.828934	860.608802	1337.655166	-383.028915	845.438566	1464.371482	-204.831505	832.999575	1286.914522	-205.045078	694.482148	1144.291038	93.982674	805.464665	930.899769	-32.283275	639.105298	1147.428750	-531.474701	816.533967	923.293656	-431.053787	241.513368	1274.021451	-241.377615	473.850261	1240.170436	-420.854296	453.539157	1279.210574	-25.738413	488.374115	1172.822777	-376.584454	474.702699	1206.983180	-54.562660	291.359474	1352.551472	-192.584783	301.194284	1337.136064	-284.215953	397.334017	1155.110504	0.112627	342.121444	1124.255063	-421.909730	506.421719	1062.582067	3.574729	585.346083	1022.288331	-9.295659	632.996744	948.972390	-18.802053	606.126457	1049.362140	-23.758086	703.873833	867.778317	-36.318200	705.448213	850.927085	-168.934508	581.948720	768.069754	-33.420714	521.594750	708.857848	-57.615675	438.263397	682.893704	-62.041261	539.202003	690.889941	-88.125143	313.060885	624.378899	-79.048719	267.401000	670.509421	-127.634391	384.110741	407.744303	-137.512814	325.454003	451.602770	-67.919723	370.182695	993.769723	-431.614911	397.793566	914.117370	-420.231754	433.736320	916.505086	-411.229828	381.459984	826.074050	-414.019383	382.027819	683.126107	-390.719103	376.365629	671.483245	-262.214745	198.333124	293.743267	-403.374750	136.343149	297.809741	-373.702860	272.306988	138.685115	-442.439559	320.142139	571.822304	-419.992940	310.123629	487.405437	-411.144670	259.152512	415.433449	-413.612591	339.520433	477.946172	-388.589289	361.743431	100.208890	-373.033157	-204.717600	950.487158	-262.285233	1.349210	82.439237	-460.784304	-15.239745	81.255450	-62.236436	
